<svg x="0" y="0" width="700" height="350" viewBox="0 0 700 350" xmlns="http://www.w3.org/2000/svg" xmlns:xlink="http://www.w3.org/1999/xlink" xmlns:fi="http://pattern.flaticon.com/"><rect x="0px" y="0px" width="100%" height="100%" opacity="0" fill="#ffffff"/><defs><path d="M349.459,52.534c-10.663-10.657-23.605-15.987-38.834-15.987c-15.222,0-28.165,5.327-38.825,15.987   c-10.656,10.657-15.984,23.598-15.984,38.828c0,9.897,2.467,19.081,7.416,27.55c4.948,8.47,11.604,15.086,19.985,19.842   c0,9.897-0.805,18.608-2.42,26.125c-1.622,7.517-4.284,14.128-7.994,19.842c-3.72,5.711-7.566,10.561-11.566,14.56   c-4.001,3.999-9.616,7.755-16.848,11.278c-7.231,3.521-13.945,6.468-20.129,8.851c-6.184,2.375-14.514,5.182-24.982,8.419   c-19.036,5.903-33.689,11.323-43.968,16.275V102.206c8.375-4.755,15.037-11.37,19.985-19.84c4.947-8.47,7.421-17.655,7.421-27.552   c0-15.225-5.327-28.169-15.987-38.826C156.073,5.332,143.132,0,127.903,0c-15.23,0-28.171,5.328-38.831,15.988   C78.416,26.645,73.085,39.589,73.085,54.814c0,9.897,2.474,19.082,7.421,27.552c4.948,8.47,11.609,15.085,19.985,19.84v234.117   c-8.376,4.753-15.037,11.375-19.985,19.842c-4.947,8.473-7.421,17.658-7.421,27.552c0,15.225,5.327,28.168,15.987,38.824   s23.604,15.988,38.831,15.988c15.226,0,28.17-5.332,38.826-15.988c10.657-10.656,15.987-23.6,15.987-38.824   c0-9.894-2.474-19.079-7.421-27.552c-4.949-8.467-11.61-15.089-19.985-19.842V328.9c0-13.131,3.949-22.645,11.847-28.544   c7.898-5.907,24.029-12.662,48.395-20.273c25.699-8.186,45.021-15.899,57.963-23.134c42.633-24.167,64.142-63.568,64.521-118.196   c8.381-4.755,15.037-11.372,19.985-19.842c4.945-8.47,7.423-17.653,7.423-27.55C365.447,76.135,360.116,63.194,349.459,52.534z    M147.321,403.138c-5.332,5.331-11.803,7.994-19.414,7.994c-7.616,0-14.087-2.663-19.417-7.994   c-5.327-5.325-7.994-11.8-7.994-19.411c0-7.617,2.664-14.085,7.994-19.417c5.33-5.328,11.801-7.994,19.417-7.994   c7.611,0,14.083,2.669,19.414,7.994c5.33,5.332,7.993,11.8,7.993,19.417C155.313,391.338,152.651,397.812,147.321,403.138z    M147.321,74.232c-5.332,5.33-11.803,7.994-19.414,7.994c-7.616,0-14.087-2.664-19.417-7.994   c-5.327-5.33-7.994-11.798-7.994-19.414c0-7.614,2.664-14.087,7.994-19.412c5.33-5.329,11.801-7.994,19.417-7.994   c7.611,0,14.083,2.666,19.414,7.994c5.33,5.325,7.993,11.798,7.993,19.412C155.313,62.434,152.651,68.905,147.321,74.232z    M330.042,110.779c-5.328,5.327-11.796,7.993-19.41,7.993c-7.618,0-14.09-2.666-19.414-7.993   c-5.328-5.327-7.994-11.799-7.994-19.414c0-7.614,2.666-14.083,7.994-19.414s11.796-7.993,19.414-7.993   c7.614,0,14.082,2.663,19.41,7.993c5.328,5.326,7.994,11.799,7.994,19.414C338.036,98.979,335.374,105.452,330.042,110.779z" transform="matrix(0.13682106137275696 0 0 0.13682106137275696 99.00000762939453 168)" id="L1_1" fill="#fff0a5"/><g transform="matrix(3.199834108352661 0 0 3.199834108352661 205.4013214111328 66.40132904052734)" id="L1_2"><path d="M2.1 3.1c0.2 1.3 0.4 1.6 0.4 2.9 0 0.8-1.5 1.5-1.5 1.5v1c0 0 1.5 0.7 1.5 1.5 0 1.3-0.2 1.6-0.4 2.9-0.3 2.1 0.8 3.1 1.8 3.1s2.1 0 2.1 0v-2c0 0-1.8 0.2-1.8-1 0-0.9 0.2-0.9 0.4-2.9 0.1-0.9-0.5-1.6-1.1-2.1 0.6-0.5 1.2-1.1 1.1-2-0.3-2-0.4-2-0.4-2.9 0-1.2 1.8-1.1 1.8-1.1v-2c0 0-1 0-2.1 0s-2.1 1-1.8 3.1z" fill="#ffb8a6"/><path d="M13.9 3.1c-0.2 1.3-0.4 1.6-0.4 2.9 0 0.8 1.5 1.5 1.5 1.5v1c0 0-1.5 0.7-1.5 1.5 0 1.3 0.2 1.6 0.4 2.9 0.3 2.1-0.8 3.1-1.8 3.1s-2.1 0-2.1 0v-2c0 0 1.8 0.2 1.8-1 0-0.9-0.2-0.9-0.4-2.9-0.1-0.9 0.5-1.6 1.1-2.1-0.6-0.5-1.2-1.1-1.1-2 0.2-2 0.4-2 0.4-2.9 0-1.2-1.8-1.1-1.8-1.1v-2c0 0 1 0 2.1 0s2.1 1 1.8 3.1z" fill="#ffb8a6"/></g><g transform="matrix(0.8446753621101379 0 0 0.8446753621101379 272.1402587890625 210.11158752441406)" id="L1_3"><path d="M93.918,45.833L69.799,21.714c-0.75-0.75-2.077-0.75-2.827,0l-5.229,5.229c-0.781,0.781-0.781,2.047,0,2.828    l17.477,17.475L61.744,64.724c-0.781,0.781-0.781,2.047,0,2.828l5.229,5.229c0.375,0.375,0.884,0.587,1.414,0.587    c0.529,0,1.039-0.212,1.414-0.587l24.117-24.118C94.699,47.881,94.699,46.614,93.918,45.833z" fill="#9eab9d"/><path d="M32.759,64.724L15.285,47.248l17.477-17.475c0.375-0.375,0.586-0.883,0.586-1.414c0-0.53-0.21-1.039-0.586-1.414    l-5.229-5.229c-0.375-0.375-0.884-0.586-1.414-0.586c-0.53,0-1.039,0.211-1.414,0.586L0.585,45.833    c-0.781,0.781-0.781,2.047,0,2.829L24.704,72.78c0.375,0.375,0.884,0.587,1.414,0.587c0.53,0,1.039-0.212,1.414-0.587l5.229-5.229    C33.542,66.771,33.542,65.505,32.759,64.724z" fill="#9eab9d"/><path d="M60.967,13.6c-0.254-0.466-0.682-0.812-1.19-0.962l-4.239-1.251c-1.058-0.314-2.172,0.293-2.484,1.352L33.375,79.382    c-0.15,0.509-0.092,1.056,0.161,1.521c0.253,0.467,0.682,0.812,1.19,0.963l4.239,1.251c0.189,0.056,0.38,0.083,0.567,0.083    c0.863,0,1.66-0.564,1.917-1.435l19.679-66.644C61.278,14.612,61.221,14.065,60.967,13.6z" fill="#9eab9d"/></g><g transform="matrix(0.15476948022842407 0 0 0.15476948022842407 32.378997802734375 -19.962169647216797)" id="L1_4"><path d="m402.238281 333.300781c-5.328125-1.429687-10.800781 1.726563-12.230469 7.0625-1.429687 5.324219 1.730469 10.808594 7.0625 12.238281 5.328126 1.429688 10.8125-1.738281 12.242188-7.0625 1.425781-5.335937-1.738281-10.808593-7.074219-12.238281zm0 0" fill="#34b9f5"/><path d="m114.925781 352.601562c5.335938-1.429687 8.492188-6.914062 7.0625-12.238281-1.429687-5.335937-6.902343-8.492187-12.226562-7.0625-5.335938 1.425781-8.503907 6.902344-7.074219 12.238281 1.425781 5.324219 6.914062 8.492188 12.238281 7.0625zm0 0" fill="#34b9f5"/><path d="m500.554688 320.765625c7.53125-24.785156 11.214843-48.089844 11.214843-70.988281 0-66.429688-27.085937-129.195313-76.273437-176.738282-47.9375-46.335937-112.214844-73.039062-179.496094-73.039062-137.828125 0-255.769531 111.523438-255.769531 249.777344 0 22.902344 3.683593 46.210937 11.21875 71.003906-9.148438 7.222656-13.59375 19.480469-10.441407 31.3125l25.867188 96.496094c4.25 15.914062 20.605469 25.507812 36.707031 21.207031l30.613281-8.207031c7.015626 10.195312 19.914063 15.347656 32.460938 11.996094l38.605469-10.351563c15.960937-4.277344 25.46875-20.746094 21.191406-36.703125l-36.199219-135.109375c-4.28125-15.964844-20.757812-25.472656-36.714844-21.191406l-38.59375 10.339843c-4.066406 1.089844-7.710937 2.972657-10.816406 5.433594-1.992187-9.300781-3.234375-18.527344-3.714844-27.632812 11.089844-3.488282 19.371094-13.167969 20.546876-25.207032 8.242187-84.492187 86.765624-153.234374 175.039062-153.234374s166.796875 68.742187 175.039062 153.234374c1.171876 12.039063 9.457032 21.71875 20.546876 25.207032-.480469 9.105468-1.722657 18.332031-3.714844 27.632812-3.109375-2.460937-6.75-4.34375-10.816406-5.433594l-38.59375-10.339843c-15.96875-4.277344-32.4375 5.226562-36.714844 21.191406l-36.199219 135.109375c-4.277344 15.960938 5.230469 32.425781 21.191406 36.703125l38.613281 10.351563c12.496094 3.339843 25.410157-1.761719 32.453126-11.996094l30.621093 8.210937c16.15625 4.3125 32.46875-5.371093 36.695313-21.203125l25.871094-96.515625c3.15625-11.835937-1.308594-24.109375-10.4375-31.316406zm-420.441407-20.894531 38.597657-10.34375c5.324218-1.429688 10.8125 1.742187 12.242187 7.0625l36.195313 135.109375c1.425781 5.320312-1.742188 10.804687-7.0625 12.234375l-9.652344 2.585937-18.09375-67.558593c-1.425782-5.328126-6.902344-8.492188-12.234375-7.066407-5.332031 1.429688-8.496094 6.90625-7.066407 12.238281l18.097657 67.5625-9.648438 2.585938c-5.316406 1.421875-10.808593-1.75-12.238281-7.070312 0-.003907 0-.007813 0-.007813l-36.207031-135.101563c-1.425781-5.316406 1.746093-10.804687 7.070312-12.230468zm7.25 142.859375-28.945312 7.761719c-5.324219 1.421874-10.808594-1.714844-12.242188-7.070313l-25.863281-96.492187c-1.34375-5.046876 1.445312-10.324219 6.433594-12.046876.230468-.082031.472656-.152343.636718-.195312l28.539063-7.652344c2.914063 7.273438-2.40625-9.398437 31.441406 115.695313zm-66.886719-182.964844h20c.871094 15.921875 3.8125 32.121094 8.78125 48.367187l-19.203124 5.152344c-5.539063-18.636718-8.695313-36.292968-9.578126-53.519531zm430.449219-28.546875c-9.445312-96.796875-97.304687-171.273438-194.925781-171.273438-97.675781 0-185.488281 74.519532-194.929688 171.277344-.46875 4.800782-4.769531 8.5625-9.800781 8.5625h-30.8125c5.585938-120.144531 111.164063-219.804687 235.542969-219.804687 124.375 0 229.957031 99.660156 235.539062 219.804687h-30.816406c-5.023437 0-9.328125-3.761718-9.796875-8.566406zm40.59375 28.546875c-.882812 17.226563-4.039062 34.882813-9.574219 53.519531l-19.207031-5.148437c4.96875-16.253907 7.910157-32.449219 8.78125-48.371094zm-88.769531 187.441406s0 0-.003906 0c-1.425782 5.320313-6.917969 8.492188-12.226563 7.074219l-9.65625-2.589844 18.097657-67.558594c1.429687-5.332031-1.734376-10.808593-7.066407-12.238281-5.328125-1.425781-10.808593 1.738281-12.234375 7.066407l-18.097656 67.558593-9.648438-2.589843c-5.320312-1.425782-8.492187-6.914063-7.066406-12.230469l36.199219-135.109375c1.195313-4.457032 5.242187-7.40625 9.65625-7.40625.851563 0 1.722656.113281 2.585937.34375l38.59375 10.339844c5.324219 1.425781 8.5 6.914062 7.074219 12.230468zm88.9375-100.289062-25.867188 96.511719c-1.429687 5.351562-6.925781 8.484374-12.230468 7.066406l-28.953125-7.765625c33.859375-125.140625 28.523437-108.414063 31.4375-115.695313 30.402343 8.15625 28.628906 7.652344 29.253906 7.875 4.910156 1.695313 7.703125 6.976563 6.359375 12.007813zm0 0" fill="#34b9f5"/></g></defs><g fi:class="KUsePattern" opacity="0.5"><pattern id="pattern_L1_1" width="350" height="350" patternUnits="userSpaceOnUse"><use xlink:href="#L1_1" x="-350" y="-350"/><use xlink:href="#L1_1" x="0" y="-350"/><use xlink:href="#L1_1" x="350" y="-350"/><use xlink:href="#L1_1" x="-350" y="0"/><use xlink:href="#L1_1" x="0" y="0"/><use xlink:href="#L1_1" x="350" y="0"/><use xlink:href="#L1_1" x="-350" y="350"/><use xlink:href="#L1_1" x="0" y="350"/><use xlink:href="#L1_1" x="350" y="350"/></pattern><rect x="0" y="0" width="100%" height="100%" fill="url(#pattern_L1_1)"/></g><g fi:class="KUsePattern" opacity="0.33"><pattern id="pattern_L1_2" width="350" height="350" patternUnits="userSpaceOnUse"><use xlink:href="#L1_2" x="-350" y="-350"/><use xlink:href="#L1_2" x="0" y="-350"/><use xlink:href="#L1_2" x="350" y="-350"/><use xlink:href="#L1_2" x="-350" y="0"/><use xlink:href="#L1_2" x="0" y="0"/><use xlink:href="#L1_2" x="350" y="0"/><use xlink:href="#L1_2" x="-350" y="350"/><use xlink:href="#L1_2" x="0" y="350"/><use xlink:href="#L1_2" x="350" y="350"/></pattern><rect x="0" y="0" width="100%" height="100%" fill="url(#pattern_L1_2)"/></g><g fi:class="KUsePattern" opacity="0.2"><pattern id="pattern_L1_3" width="350" height="350" patternUnits="userSpaceOnUse"><use xlink:href="#L1_3" x="-350" y="-350"/><use xlink:href="#L1_3" x="0" y="-350"/><use xlink:href="#L1_3" x="350" y="-350"/><use xlink:href="#L1_3" x="-350" y="0"/><use xlink:href="#L1_3" x="0" y="0"/><use xlink:href="#L1_3" x="350" y="0"/><use xlink:href="#L1_3" x="-350" y="350"/><use xlink:href="#L1_3" x="0" y="350"/><use xlink:href="#L1_3" x="350" y="350"/></pattern><rect x="0" y="0" width="100%" height="100%" fill="url(#pattern_L1_3)"/></g><g fi:class="KUsePattern" opacity="0.15"><pattern id="pattern_L1_4" width="350" height="350" patternUnits="userSpaceOnUse"><use xlink:href="#L1_4" x="-350" y="-350"/><use xlink:href="#L1_4" x="0" y="-350"/><use xlink:href="#L1_4" x="350" y="-350"/><use xlink:href="#L1_4" x="-350" y="0"/><use xlink:href="#L1_4" x="0" y="0"/><use xlink:href="#L1_4" x="350" y="0"/><use xlink:href="#L1_4" x="-350" y="350"/><use xlink:href="#L1_4" x="0" y="350"/><use xlink:href="#L1_4" x="350" y="350"/></pattern><rect x="0" y="0" width="100%" height="100%" fill="url(#pattern_L1_4)"/></g></svg>